{
  "accessors": [
    {
      "bufferView": 2,
      "componentType": 5126,
      "count": 65532,
      "max": [
        0.013073000125586987,
        0.01819000020623207,
        0.015103000216186047
      ],
      "min": [
        -0.014283999800682068,
        -0.018312999978661537,
        -0.014631999656558037
      ],
      "type": "VEC3"
    },
    {
      "bufferView": 2,
      "byteOffset": 786384,
      "componentType": 5126,
      "count": 65532,
      "max": [
        0.999992847442627,
        0.999964714050293,
        0.9999924898147583
      ],
      "min": [
        -0.9998608231544495,
        -0.9999979138374329,
        -0.9999796152114868
      ],
      "type": "VEC3"
    },
    {
      "bufferView": 1,
      "componentType": 5126,
      "count": 65532,
      "max": [
        0.9995909929275513,
        0.9958170056343079
      ],
      "min": [
        0.00016999999934341758,
        0.0002849999873433262
      ],
      "type": "VEC2"
    },
    {
      "bufferView": 0,
      "componentType": 5125,
      "count": 350025,
      "type": "SCALAR"
    },
    {
      "bufferView": 2,
      "byteOffset": 1572768,
      "componentType": 5126,
      "count": 26804,
      "max": [
        0.013073000125586987,
        0.018363000825047493,
        0.01502699963748455
      ],
      "min": [
        -0.014283999800682068,
        -0.018312999978661537,
        -0.014561999589204788
      ],
      "type": "VEC3"
    },
    {
      "bufferView": 2,
      "byteOffset": 1894416,
      "componentType": 5126,
      "count": 26804,
      "max": [
        0.9999606609344482,
        0.9999419450759888,
        0.9999936819076538
      ],
      "min": [
        -0.9996588230133057,
        -0.9999979138374329,
        -0.9999796152114868
      ],
      "type": "VEC3"
    },
    {
      "bufferView": 1,
      "byteOffset": 524256,
      "componentType": 5126,
      "count": 26804,
      "max": [
        0.9994810223579407,
        0.9958170056343079
      ],
      "min": [
        0.0050760000012815,
        0.002877000020816922
      ],
      "type": "VEC2"
    },
    {
      "bufferView": 0,
      "byteOffset": 1400100,
      "componentType": 5125,
      "count": 99963,
      "type": "SCALAR"
    }
  ],
  "asset": {
    "extras": {
      "author": "NASA Astromaterials 3D (https://sketchfab.com/Astromaterials3D)",
      "license": "CC0-1.0 (http://creativecommons.org/publicdomain/zero/1.0/)",
      "source": "https://sketchfab.com/3d-models/antarctic-meteorite-sample-rbt-042610-7441825477a140cfbfd77309aa076e0f",
      "title": "Antarctic Meteorite Sample RBT 04261,0"
    },
    "generator": "Sketchfab-13.74.0",
    "version": "2.0"
  },
  "bufferViews": [
    {
      "buffer": 0,
      "byteLength": 1799952,
      "name": "floatBufferViews",
      "target": 34963
    },
    {
      "buffer": 0,
      "byteLength": 738688,
      "byteOffset": 1799952,
      "byteStride": 8,
      "name": "floatBufferViews",
      "target": 34962
    },
    {
      "buffer": 0,
      "byteLength": 2216064,
      "byteOffset": 2538640,
      "byteStride": 12,
      "name": "floatBufferViews",
      "target": 34962
    }
  ],
  "buffers": [
    {
      "byteLength": 4754704,
      "uri": "scene.bin"
    }
  ],
  "images": [
    {
      "uri": "textures/material_1_baseColor.jpeg"
    }
  ],
  "materials": [
    {
      "doubleSided": true,
      "name": "material_1",
      "pbrMetallicRoughness": {
        "baseColorTexture": {
          "index": 0
        },
        "metallicFactor": 0.0
      }
    }
  ],
  "meshes": [
    {
      "name": "Object_0",
      "primitives": [
        {
          "attributes": {
            "NORMAL": 1,
            "POSITION": 0,
            "TEXCOORD_0": 2
          },
          "indices": 3,
          "material": 0,
          "mode": 4
        }
      ]
    },
    {
      "name": "Object_1",
      "primitives": [
        {
          "attributes": {
            "NORMAL": 5,
            "POSITION": 4,
            "TEXCOORD_0": 6
          },
          "indices": 7,
          "material": 0,
          "mode": 4
        }
      ]
    }
  ],
  "nodes": [
    {
      "children": [
        1
      ],
      "matrix": [
        1.0,
        0.0,
        0.0,
        0.0,
        0.0,
        2.220446049250313e-16,
        -1.0,
        0.0,
        0.0,
        1.0,
        2.220446049250313e-16,
        0.0,
        0.0,
        0.0,
        0.0,
        1.0
      ],
      "name": "Sketchfab_model"
    },
    {
      "children": [
        2,
        3
      ],
      "name": "RBT04261-0_SFM_Web-Resolution-Model_Coordinate-Registered.obj.cleaner.materialmerger.gles"
    },
    {
      "mesh": 0,
      "name": "Object_2"
    },
    {
      "mesh": 1,
      "name": "Object_3"
    }
  ],
  "samplers": [
    {
      "magFilter": 9729,
      "minFilter": 9987,
      "wrapS": 10497,
      "wrapT": 10497
    }
  ],
  "scene": 0,
  "scenes": [
    {
      "name": "Sketchfab_Scene",
      "nodes": [
        0
      ]
    }
  ],
  "textures": [
    {
      "sampler": 0,
      "source": 0
    }
  ]
}
