{
  "accessors": [
    {
      "bufferView": 2,
      "componentType": 5126,
      "count": 479,
      "max": [
        0.7770261168479919,
        0.7770258784294128,
        0.19995835423469543
      ],
      "min": [
        -0.7770258784294128,
        -0.7770262360572815,
        -0.2000417411327362
      ],
      "type": "VEC3"
    },
    {
      "bufferView": 2,
      "byteOffset": 5748,
      "componentType": 5126,
      "count": 479,
      "type": "VEC3"
    },
    {
      "bufferView": 1,
      "componentType": 5126,
      "count": 479,
      "type": "VEC2"
    },
    {
      "bufferView": 0,
      "componentType": 5125,
      "count": 2400,
      "type": "SCALAR"
    }
  ],
  "asset": {
    "generator": "fab-model-conversion",
    "version": "2.0"
  },
  "bufferViews": [
    {
      "buffer": 0,
      "byteLength": 9600,
      "target": 34963
    },
    {
      "buffer": 0,
      "byteLength": 3832,
      "byteOffset": 9600,
      "byteStride": 8,
      "target": 34962
    },
    {
      "buffer": 0,
      "byteLength": 11496,
      "byteOffset": 13432,
      "byteStride": 12,
      "target": 34962
    }
  ],
  "buffers": [
    {
      "byteLength": 24928,
      "uri": "scene.bin"
    }
  ],
  "materials": [
    {
      "doubleSided": true,
      "name": "Yellow",
      "pbrMetallicRoughness": {
        "baseColorFactor": [
          0.8,
          0.585697,
          0.0768585,
          1.0
        ],
        "metallicFactor": 0.0,
        "roughnessFactor": 0.2544769660250393
      }
    }
  ],
  "meshes": [
    {
      "name": "Inflatable_Buoy_Yellow_0",
      "primitives": [
        {
          "attributes": {
            "NORMAL": 1,
            "POSITION": 0,
            "TEXCOORD_0": 2
          },
          "indices": 3,
          "material": 0,
          "mode": 4
        }
      ]
    }
  ],
  "nodes": [
    {
      "children": [
        1
      ],
      "matrix": [
        1.0,
        0.0,
        0.0,
        0.0,
        0.0,
        2.220446049250313e-16,
        -1.0,
        0.0,
        0.0,
        1.0,
        2.220446049250313e-16,
        0.0,
        0.0,
        0.0,
        0.0,
        1.0
      ],
      "name": "Sketchfab_model"
    },
    {
      "children": [
        2
      ],
      "matrix": [
        0.009999999776482582,
        0.0,
        0.0,
        0.0,
        0.0,
        0.0,
        0.009999999776482582,
        0.0,
        0.0,
        -0.009999999776482582,
        0.0,
        0.0,
        0.0,
        0.0,
        0.0,
        1.0
      ],
      "name": "Inflatable_Buoy_fbx.fbx"
    },
    {
      "children": [
        3
      ],
      "name": "RootNode"
    },
    {
      "children": [
        4
      ],
      "matrix": [
        100.0,
        0.0,
        0.0,
        0.0,
        -0.0,
        -1.629206793918314e-05,
        -99.99999999999868,
        0.0,
        0.0,
        99.99999999999868,
        -1.629206793918314e-05,
        0.0,
        -4.342198371887207e-05,
        0.00014081597328186035,
        -0.00027108192443847656,
        1.0
      ],
      "name": "Inflatable_Buoy"
    },
    {
      "mesh": 0,
      "name": "Inflatable_Buoy_Yellow_0"
    }
  ],
  "scene": 0,
  "scenes": [
    {
      "name": "Sketchfab_Scene",
      "nodes": [
        0
      ]
    }
  ]
}
