{
  "accessors": [
    {
      "bufferView": 2,
      "componentType": 5126,
      "count": 834,
      "max": [
        1.1546674966812134,
        5.227946758270264,
        1.1546674966812134
      ],
      "min": [
        -1.154667615890503,
        -5.018274307250977,
        -1.1546673774719238
      ],
      "type": "VEC3"
    },
    {
      "bufferView": 2,
      "byteOffset": 10008,
      "componentType": 5126,
      "count": 834,
      "max": [
        0.9951848387718201,
        1.0,
        0.9951848983764648
      ],
      "min": [
        -0.9951848983764648,
        -1.0,
        -0.9951848983764648
      ],
      "type": "VEC3"
    },
    {
      "bufferView": 1,
      "componentType": 5126,
      "count": 834,
      "max": [
        1.0,
        1.0
      ],
      "min": [
        0.0,
        0.01000000536441803
      ],
      "type": "VEC2"
    },
    {
      "bufferView": 0,
      "componentType": 5125,
      "count": 1524,
      "type": "SCALAR"
    },
    {
      "bufferView": 2,
      "byteOffset": 20016,
      "componentType": 5126,
      "count": 309,
      "max": [
        0.7918176054954529,
        1.0898851156234741,
        1.1700196266174316
      ],
      "min": [
        -0.7918175458908081,
        -1.0847585201263428,
        -1.4740864038467407
      ],
      "type": "VEC3"
    },
    {
      "bufferView": 2,
      "byteOffset": 23724,
      "componentType": 5126,
      "count": 309,
      "max": [
        0.9999996423721313,
        0.9998204708099365,
        0.9984883666038513
      ],
      "min": [
        -0.9999996423721313,
        -0.9992952346801758,
        -0.9995173215866089
      ],
      "type": "VEC3"
    },
    {
      "bufferView": 1,
      "byteOffset": 6672,
      "componentType": 5126,
      "count": 309,
      "max": [
        0.8750001192092896,
        1.0000001192092896
      ],
      "min": [
        0.1250000149011612,
        0.0
      ],
      "type": "VEC2"
    },
    {
      "bufferView": 0,
      "byteOffset": 6096,
      "componentType": 5125,
      "count": 1536,
      "type": "SCALAR"
    },
    {
      "bufferView": 2,
      "byteOffset": 27432,
      "componentType": 5126,
      "count": 1054,
      "max": [
        1.1010730266571045,
        0.7070467472076416,
        0.49333083629608154
      ],
      "min": [
        -1.1010730266571045,
        -0.5463934540748596,
        -0.6950861215591431
      ],
      "type": "VEC3"
    },
    {
      "bufferView": 2,
      "byteOffset": 40080,
      "componentType": 5126,
      "count": 1054,
      "max": [
        0.9968609809875488,
        0.9969125390052795,
        0.9948766827583313
      ],
      "min": [
        -0.9968609809875488,
        -0.997060239315033,
        -0.9969271421432495
      ],
      "type": "VEC3"
    },
    {
      "bufferView": 1,
      "byteOffset": 9144,
      "componentType": 5126,
      "count": 1054,
      "max": [
        1.000000238418579,
        0.9375001192092896
      ],
      "min": [
        0.0,
        0.0
      ],
      "type": "VEC2"
    },
    {
      "bufferView": 0,
      "byteOffset": 12240,
      "componentType": 5125,
      "count": 5568,
      "type": "SCALAR"
    },
    {
      "bufferView": 2,
      "byteOffset": 52728,
      "componentType": 5126,
      "count": 130,
      "max": [
        0.9675309658050537,
        0.2920888066291809,
        0.23148144781589508
      ],
      "min": [
        -0.9675309658050537,
        0.05214790627360344,
        0.02945152297616005
      ],
      "type": "VEC3"
    },
    {
      "bufferView": 2,
      "byteOffset": 54288,
      "componentType": 5126,
      "count": 130,
      "max": [
        0.8306310772895813,
        0.3145942687988281,
        0.6361221075057983
      ],
      "min": [
        -0.8306310772895813,
        0.161079540848732,
        0.5067437887191772
      ],
      "type": "VEC3"
    },
    {
      "bufferView": 1,
      "byteOffset": 17576,
      "componentType": 5126,
      "count": 130,
      "max": [
        1.000000238418579,
        1.0
      ],
      "min": [
        2.384185791015625e-07,
        0.9374999403953552
      ],
      "type": "VEC2"
    },
    {
      "bufferView": 0,
      "byteOffset": 34512,
      "componentType": 5125,
      "count": 192,
      "type": "SCALAR"
    },
    {
      "bufferView": 2,
      "byteOffset": 55848,
      "componentType": 5126,
      "count": 882,
      "max": [
        0.9079347252845764,
        0.6173272728919983,
        1.0465224981307983
      ],
      "min": [
        -0.9079350233078003,
        -0.5208913683891296,
        -0.5039123296737671
      ],
      "type": "VEC3"
    },
    {
      "bufferView": 2,
      "byteOffset": 66432,
      "componentType": 5126,
      "count": 882,
      "max": [
        0.9999954700469971,
        0.9999771118164063,
        0.9551007747650146
      ],
      "min": [
        -0.9999954700469971,
        -0.9999771118164063,
        -0.9999202489852905
      ],
      "type": "VEC3"
    },
    {
      "bufferView": 1,
      "byteOffset": 18616,
      "componentType": 5126,
      "count": 882,
      "max": [
        0.8750001192092896,
        1.0000001192092896
      ],
      "min": [
        0.1250000149011612,
        0.0
      ],
      "type": "VEC2"
    },
    {
      "bufferView": 0,
      "byteOffset": 35280,
      "componentType": 5125,
      "count": 4608,
      "type": "SCALAR"
    },
    {
      "bufferView": 2,
      "byteOffset": 77016,
      "componentType": 5126,
      "count": 305,
      "max": [
        0.27231401205062866,
        0.5679421424865723,
        0.8530537486076355
      ],
      "min": [
        -0.2723139822483063,
        -0.67558753490448,
        -0.6630178689956665
      ],
      "type": "VEC3"
    },
    {
      "bufferView": 2,
      "byteOffset": 80676,
      "componentType": 5126,
      "count": 305,
      "max": [
        1.0,
        0.9995192289352417,
        0.9989544749259949
      ],
      "min": [
        -1.0,
        -0.9914364814758301,
        -0.9996531009674072
      ],
      "type": "VEC3"
    },
    {
      "bufferView": 1,
      "byteOffset": 25672,
      "componentType": 5126,
      "count": 305,
      "max": [
        0.8750001192092896,
        1.0000001192092896
      ],
      "min": [
        0.1250000149011612,
        0.0
      ],
      "type": "VEC2"
    },
    {
      "bufferView": 0,
      "byteOffset": 53712,
      "componentType": 5125,
      "count": 1536,
      "type": "SCALAR"
    },
    {
      "bufferView": 2,
      "byteOffset": 84336,
      "componentType": 5126,
      "count": 305,
      "max": [
        0.27231401205062866,
        0.5679421424865723,
        0.8530537486076355
      ],
      "min": [
        -0.2723139822483063,
        -0.67558753490448,
        -0.6630178689956665
      ],
      "type": "VEC3"
    },
    {
      "bufferView": 2,
      "byteOffset": 87996,
      "componentType": 5126,
      "count": 305,
      "max": [
        1.0,
        0.9995192289352417,
        0.9989544749259949
      ],
      "min": [
        -1.0,
        -0.9914364814758301,
        -0.9996531009674072
      ],
      "type": "VEC3"
    },
    {
      "bufferView": 1,
      "byteOffset": 28112,
      "componentType": 5126,
      "count": 305,
      "max": [
        0.8750001192092896,
        1.0000001192092896
      ],
      "min": [
        0.1250000149011612,
        0.0
      ],
      "type": "VEC2"
    },
    {
      "bufferView": 0,
      "byteOffset": 59856,
      "componentType": 5125,
      "count": 1536,
      "type": "SCALAR"
    }
  ],
  "asset": {
    "extras": {
      "author": "wifqo.akroma (https://sketchfab.com/wifqo.akroma)",
      "license": "CC-BY-4.0 (http://creativecommons.org/licenses/by/4.0/)",
      "source": "https://sketchfab.com/3d-models/flappy-bird-3d-13942e273d6148babe51f1fed4952e0f",
      "title": "Flappy Bird 3D"
    },
    "generator": "Sketchfab-12.67.0",
    "version": "2.0"
  },
  "bufferViews": [
    {
      "buffer": 0,
      "byteLength": 66000,
      "name": "floatBufferViews",
      "target": 34963
    },
    {
      "buffer": 0,
      "byteLength": 30552,
      "byteOffset": 66000,
      "byteStride": 8,
      "name": "floatBufferViews",
      "target": 34962
    },
    {
      "buffer": 0,
      "byteLength": 91656,
      "byteOffset": 96552,
      "byteStride": 12,
      "name": "floatBufferViews",
      "target": 34962
    }
  ],
  "buffers": [
    {
      "byteLength": 188208,
      "uri": "scene.bin"
    }
  ],
  "materials": [
    {
      "doubleSided": true,
      "name": "Pipa",
      "pbrMetallicRoughness": {
        "baseColorFactor": [
          0.00716513,
          0.35884,
          0.0,
          1.0
        ],
        "metallicFactor": 0.652778,
        "roughnessFactor": 0.944444
      }
    },
    {
      "doubleSided": true,
      "name": "badan",
      "pbrMetallicRoughness": {
        "baseColorFactor": [
          0.887923,
          0.822786,
          0.021219,
          1.0
        ],
        "metallicFactor": 0.0,
        "roughnessFactor": 0.4
      }
    },
    {
      "doubleSided": true,
      "name": "Mata",
      "pbrMetallicRoughness": {
        "baseColorFactor": [
          0.982251,
          1.0,
          0.955973,
          1.0
        ],
        "metallicFactor": 0.0,
        "roughnessFactor": 0.277778
      }
    },
    {
      "doubleSided": true,
      "name": "Pupil",
      "pbrMetallicRoughness": {
        "baseColorFactor": [
          0.0,
          0.0,
          0.0,
          1.0
        ],
        "metallicFactor": 0.0,
        "roughnessFactor": 0.111111
      }
    },
    {
      "doubleSided": true,
      "name": "Paruh",
      "pbrMetallicRoughness": {
        "baseColorFactor": [
          0.982251,
          0.135633,
          0.0722718,
          1.0
        ],
        "metallicFactor": 0.0,
        "roughnessFactor": 0.333333
      }
    }
  ],
  "meshes": [
    {
      "name": "Object_0",
      "primitives": [
        {
          "attributes": {
            "NORMAL": 1,
            "POSITION": 0,
            "TEXCOORD_0": 2
          },
          "indices": 3,
          "material": 0,
          "mode": 4
        }
      ]
    },
    {
      "name": "Object_1",
      "primitives": [
        {
          "attributes": {
            "NORMAL": 5,
            "POSITION": 4,
            "TEXCOORD_0": 6
          },
          "indices": 7,
          "material": 1,
          "mode": 4
        }
      ]
    },
    {
      "name": "Object_2",
      "primitives": [
        {
          "attributes": {
            "NORMAL": 9,
            "POSITION": 8,
            "TEXCOORD_0": 10
          },
          "indices": 11,
          "material": 2,
          "mode": 4
        }
      ]
    },
    {
      "name": "Object_3",
      "primitives": [
        {
          "attributes": {
            "NORMAL": 13,
            "POSITION": 12,
            "TEXCOORD_0": 14
          },
          "indices": 15,
          "material": 3,
          "mode": 4
        }
      ]
    },
    {
      "name": "Object_4",
      "primitives": [
        {
          "attributes": {
            "NORMAL": 17,
            "POSITION": 16,
            "TEXCOORD_0": 18
          },
          "indices": 19,
          "material": 4,
          "mode": 4
        }
      ]
    },
    {
      "name": "Object_5",
      "primitives": [
        {
          "attributes": {
            "NORMAL": 21,
            "POSITION": 20,
            "TEXCOORD_0": 22
          },
          "indices": 23,
          "material": 1,
          "mode": 4
        }
      ]
    },
    {
      "name": "Object_6",
      "primitives": [
        {
          "attributes": {
            "NORMAL": 25,
            "POSITION": 24,
            "TEXCOORD_0": 26
          },
          "indices": 27,
          "material": 1,
          "mode": 4
        }
      ]
    }
  ],
  "nodes": [
    {
      "children": [
        1
      ],
      "matrix": [
        1.0,
        0.0,
        0.0,
        0.0,
        0.0,
        2.220446049250313e-16,
        -1.0,
        0.0,
        0.0,
        1.0,
        2.220446049250313e-16,
        0.0,
        0.0,
        0.0,
        0.0,
        1.0
      ],
      "name": "Sketchfab_model"
    },
    {
      "children": [
        2
      ],
      "name": "root"
    },
    {
      "children": [
        3,
        5
      ],
      "matrix": [
        1.0,
        0.0,
        0.0,
        0.0,
        0.0,
        2.220446049250313e-16,
        1.0,
        0.0,
        0.0,
        -1.0,
        2.220446049250313e-16,
        0.0,
        0.0,
        0.0,
        0.0,
        1.0
      ],
      "name": "GLTF_SceneRootNode"
    },
    {
      "children": [
        4
      ],
      "matrix": [
        1.0,
        0.0,
        0.0,
        0.0,
        0.0,
        1.0,
        0.0,
        0.0,
        0.0,
        0.0,
        1.0,
        0.0,
        0.0,
        -7.17548942565918,
        0.0,
        1.0
      ],
      "name": "Cylinder_0"
    },
    {
      "mesh": 0,
      "name": "Object_4"
    },
    {
      "children": [
        6,
        7,
        10,
        12,
        14
      ],
      "name": "badan_5"
    },
    {
      "mesh": 1,
      "name": "Object_6"
    },
    {
      "children": [
        8,
        9
      ],
      "matrix": [
        1.0,
        0.0,
        0.0,
        0.0,
        0.0,
        1.0,
        0.0,
        0.0,
        0.0,
        0.0,
        1.0,
        0.0,
        -0.0024684667587280273,
        0.3259255886077881,
        0.6410202980041504,
        1.0
      ],
      "name": "Mata_1"
    },
    {
      "mesh": 2,
      "name": "Object_8"
    },
    {
      "mesh": 3,
      "name": "Object_9"
    },
    {
      "children": [
        11
      ],
      "matrix": [
        1.0,
        0.0,
        0.0,
        0.0,
        0.0,
        1.0,
        0.0,
        0.0,
        0.0,
        0.0,
        1.0,
        0.0,
        0.0,
        -0.3767992854118347,
        0.9612226486206055,
        1.0
      ],
      "name": "paruh_2"
    },
    {
      "mesh": 4,
      "name": "Object_11"
    },
    {
      "children": [
        13
      ],
      "matrix": [
        1.0,
        0.0,
        0.0,
        0.0,
        0.0,
        1.0,
        0.0,
        0.0,
        0.0,
        0.0,
        1.0,
        0.0,
        0.8449740409851074,
        0.022146575152873993,
        -1.1405493021011353,
        1.0
      ],
      "name": "sayapkanan_3"
    },
    {
      "mesh": 5,
      "name": "Object_13"
    },
    {
      "children": [
        15
      ],
      "matrix": [
        1.0,
        0.0,
        0.0,
        0.0,
        0.0,
        1.0,
        0.0,
        0.0,
        0.0,
        0.0,
        1.0,
        0.0,
        -0.851164698600769,
        0.022146575152873993,
        -1.1405494213104248,
        1.0
      ],
      "name": "sayapkiri_4"
    },
    {
      "mesh": 6,
      "name": "Object_15"
    }
  ],
  "scene": 0,
  "scenes": [
    {
      "name": "Sketchfab_Scene",
      "nodes": [
        0
      ]
    }
  ]
}
