{
  "accessors": [
    {
      "bufferView": 2,
      "componentType": 5126,
      "count": 65532,
      "max": [
        0.0318400003015995,
        0.019523000344634056,
        0.0297860000282526
      ],
      "min": [
        -0.03173699975013733,
        -0.03750300034880638,
        -0.03276500105857849
      ],
      "type": "VEC3"
    },
    {
      "bufferView": 2,
      "byteOffset": 786384,
      "componentType": 5126,
      "count": 65532,
      "max": [
        0.9999966025352478,
        0.9998967051506042,
        0.9999991655349731
      ],
      "min": [
        -0.999982476234436,
        -0.9999879002571106,
        -0.9999902844429016
      ],
      "type": "VEC3"
    },
    {
      "bufferView": 1,
      "componentType": 5126,
      "count": 65532,
      "max": [
        0.9990910291671753,
        0.9927150011062622
      ],
      "min": [
        0.0025569999124854803,
        0.0009519999730400741
      ],
      "type": "VEC2"
    },
    {
      "bufferView": 0,
      "componentType": 5125,
      "count": 314361,
      "type": "SCALAR"
    },
    {
      "bufferView": 2,
      "byteOffset": 1572768,
      "componentType": 5126,
      "count": 65532,
      "max": [
        0.024083999916911125,
        0.03687399998307228,
        0.031592998653650284
      ],
      "min": [
        -0.03173699975013733,
        -0.036580998450517654,
        -0.0320889987051487
      ],
      "type": "VEC3"
    },
    {
      "bufferView": 2,
      "byteOffset": 2359152,
      "componentType": 5126,
      "count": 65532,
      "max": [
        0.9999973177909851,
        0.9999969601631165,
        0.9999712705612183
      ],
      "min": [
        -0.9999576210975647,
        -0.9999658465385437,
        -0.9999659657478333
      ],
      "type": "VEC3"
    },
    {
      "bufferView": 1,
      "byteOffset": 524256,
      "componentType": 5126,
      "count": 65532,
      "max": [
        0.9999549984931946,
        0.9954230189323425
      ],
      "min": [
        0.00023799999326001853,
        0.00013099999341648072
      ],
      "type": "VEC2"
    },
    {
      "bufferView": 0,
      "byteOffset": 1257444,
      "componentType": 5125,
      "count": 237066,
      "type": "SCALAR"
    },
    {
      "bufferView": 2,
      "byteOffset": 3145536,
      "componentType": 5126,
      "count": 15895,
      "max": [
        0.03177399933338165,
        0.021895000711083412,
        0.019677000120282173
      ],
      "min": [
        -0.02820100076496601,
        -0.037328001111745834,
        -0.03276500105857849
      ],
      "type": "VEC3"
    },
    {
      "bufferView": 2,
      "byteOffset": 3336276,
      "componentType": 5126,
      "count": 15895,
      "max": [
        0.9999538660049438,
        0.999441921710968,
        0.9994708895683289
      ],
      "min": [
        -0.9994743466377258,
        -0.9994525909423828,
        -0.9999329447746277
      ],
      "type": "VEC3"
    },
    {
      "bufferView": 1,
      "byteOffset": 1048512,
      "componentType": 5126,
      "count": 15895,
      "max": [
        0.9990910291671753,
        0.9962260127067566
      ],
      "min": [
        0.0010939999483525753,
        0.0065009999088943005
      ],
      "type": "VEC2"
    },
    {
      "bufferView": 0,
      "byteOffset": 2205708,
      "componentType": 5125,
      "count": 48573,
      "type": "SCALAR"
    }
  ],
  "asset": {
    "extras": {
      "author": "NASA Astromaterials 3D (https://sketchfab.com/Astromaterials3D)",
      "license": "CC0-1.0 (http://creativecommons.org/publicdomain/zero/1.0/)",
      "source": "https://sketchfab.com/3d-models/apollo-lunar-sample-701750-9fe0833c2b3a4dd3b26844c1dd09f441",
      "title": "Apollo Lunar Sample 70175,0"
    },
    "generator": "Sketchfab-13.74.0",
    "version": "2.0"
  },
  "bufferViews": [
    {
      "buffer": 0,
      "byteLength": 2400000,
      "name": "floatBufferViews",
      "target": 34963
    },
    {
      "buffer": 0,
      "byteLength": 1175672,
      "byteOffset": 2400000,
      "byteStride": 8,
      "name": "floatBufferViews",
      "target": 34962
    },
    {
      "buffer": 0,
      "byteLength": 3527016,
      "byteOffset": 3575672,
      "byteStride": 12,
      "name": "floatBufferViews",
      "target": 34962
    }
  ],
  "buffers": [
    {
      "byteLength": 7102688,
      "uri": "scene.bin"
    }
  ],
  "images": [
    {
      "uri": "textures/material_1_baseColor.jpeg"
    }
  ],
  "materials": [
    {
      "doubleSided": true,
      "name": "material_1",
      "pbrMetallicRoughness": {
        "baseColorTexture": {
          "index": 0
        },
        "metallicFactor": 0.0
      }
    }
  ],
  "meshes": [
    {
      "name": "Object_0",
      "primitives": [
        {
          "attributes": {
            "NORMAL": 1,
            "POSITION": 0,
            "TEXCOORD_0": 2
          },
          "indices": 3,
          "material": 0,
          "mode": 4
        }
      ]
    },
    {
      "name": "Object_1",
      "primitives": [
        {
          "attributes": {
            "NORMAL": 5,
            "POSITION": 4,
            "TEXCOORD_0": 6
          },
          "indices": 7,
          "material": 0,
          "mode": 4
        }
      ]
    },
    {
      "name": "Object_2",
      "primitives": [
        {
          "attributes": {
            "NORMAL": 9,
            "POSITION": 8,
            "TEXCOORD_0": 10
          },
          "indices": 11,
          "material": 0,
          "mode": 4
        }
      ]
    }
  ],
  "nodes": [
    {
      "children": [
        1
      ],
      "matrix": [
        1.0,
        0.0,
        0.0,
        0.0,
        0.0,
        2.220446049250313e-16,
        -1.0,
        0.0,
        0.0,
        1.0,
        2.220446049250313e-16,
        0.0,
        0.0,
        0.0,
        0.0,
        1.0
      ],
      "name": "Sketchfab_model"
    },
    {
      "children": [
        2,
        3,
        4
      ],
      "name": "70175-0_SFM_Web-Resolution-Model_Coordinate-Registered.obj.cleaner.materialmerger.gles"
    },
    {
      "mesh": 0,
      "name": "Object_2"
    },
    {
      "mesh": 1,
      "name": "Object_3"
    },
    {
      "mesh": 2,
      "name": "Object_4"
    }
  ],
  "samplers": [
    {
      "magFilter": 9729,
      "minFilter": 9987,
      "wrapS": 10497,
      "wrapT": 10497
    }
  ],
  "scene": 0,
  "scenes": [
    {
      "name": "Sketchfab_Scene",
      "nodes": [
        0
      ]
    }
  ],
  "textures": [
    {
      "sampler": 0,
      "source": 0
    }
  ]
}
