{
  "accessors": [
    {
      "bufferView": 1,
      "componentType": 5126,
      "count": 40,
      "max": [
        2.036750078201294,
        3.0084400177001953,
        0.9350699782371521
      ],
      "min": [
        -4.086790084838867,
        -1.0,
        -0.0640999972820282
      ],
      "type": "VEC3"
    },
    {
      "bufferView": 1,
      "byteOffset": 480,
      "componentType": 5126,
      "count": 40,
      "max": [
        0.9997937083244324,
        0.8382001519203186,
        0.999933123588562
      ],
      "min": [
        -0.9997937083244324,
        -0.8382001519203186,
        -0.999933123588562
      ],
      "type": "VEC3"
    },
    {
      "bufferView": 0,
      "componentType": 5125,
      "count": 60,
      "type": "SCALAR"
    },
    {
      "bufferView": 1,
      "byteOffset": 960,
      "componentType": 5126,
      "count": 40,
      "max": [
        1.4706499576568604,
        3.106029987335205,
        0.949180006980896
      ],
      "min": [
        -3.603339910507202,
        -1.0,
        -0.06554000079631805
      ],
      "type": "VEC3"
    },
    {
      "bufferView": 1,
      "byteOffset": 1440,
      "componentType": 5126,
      "count": 40,
      "max": [
        0.9995393753051758,
        0.7842980623245239,
        0.9997902512550354
      ],
      "min": [
        -0.9995393753051758,
        -0.7842980623245239,
        -0.9997902512550354
      ],
      "type": "VEC3"
    },
    {
      "bufferView": 0,
      "byteOffset": 240,
      "componentType": 5125,
      "count": 60,
      "type": "SCALAR"
    }
  ],
  "asset": {
    "extras": {
      "author": "tismusolezzo (https://sketchfab.com/tismusolezzo)",
      "license": "CC-BY-4.0 (http://creativecommons.org/licenses/by/4.0/)",
      "source": "https://sketchfab.com/3d-models/speed-power-9d6f72e9cba6458d8b7efce17828e3ae",
      "title": "Speed Power"
    },
    "generator": "Sketchfab-12.67.0",
    "version": "2.0"
  },
  "bufferViews": [
    {
      "buffer": 0,
      "byteLength": 480,
      "name": "floatBufferViews",
      "target": 34963
    },
    {
      "buffer": 0,
      "byteLength": 1920,
      "byteOffset": 480,
      "byteStride": 12,
      "name": "floatBufferViews",
      "target": 34962
    }
  ],
  "buffers": [
    {
      "byteLength": 2400,
      "uri": "scene.bin"
    }
  ],
  "materials": [
    {
      "doubleSided": true,
      "name": "Root",
      "pbrMetallicRoughness": {
        "metallicFactor": 0.0,
        "roughnessFactor": 0.6
      }
    }
  ],
  "meshes": [
    {
      "name": "Plane_0",
      "primitives": [
        {
          "attributes": {
            "NORMAL": 1,
            "POSITION": 0
          },
          "indices": 2,
          "material": 0,
          "mode": 4
        }
      ]
    },
    {
      "name": "Plane.001_0",
      "primitives": [
        {
          "attributes": {
            "NORMAL": 4,
            "POSITION": 3
          },
          "indices": 5,
          "material": 0,
          "mode": 4
        }
      ]
    }
  ],
  "nodes": [
    {
      "children": [
        1
      ],
      "matrix": [
        -2.220446049250313e-16,
        -1.0,
        -2.220446049250313e-16,
        0.0,
        1.6081226229577292e-16,
        2.2204460492503128e-16,
        -1.0,
        0.0,
        1.0,
        -2.2204460492503136e-16,
        1.6081226229577287e-16,
        0.0,
        -1.1212623119354248,
        -0.9890947937965393,
        -2.1962316272195788e-16,
        1.0
      ],
      "name": "Sketchfab_model"
    },
    {
      "children": [
        2,
        4,
        6
      ],
      "name": "Root"
    },
    {
      "children": [
        3
      ],
      "matrix": [
        -0.29086000000000006,
        0.9551700000000001,
        -0.05519000000000001,
        0.0,
        -0.7711,
        -0.19988000000000003,
        0.6045200000000001,
        0.0,
        0.5663900000000001,
        0.21839000000000003,
        0.7946700000000001,
        0.0,
        4.076250000000001,
        1.00545,
        5.903860000000001,
        1.0
      ],
      "name": "Lamp"
    },
    {
      "name": "Lamp"
    },
    {
      "children": [
        5
      ],
      "matrix": [
        1.0,
        0.0,
        0.0,
        0.0,
        0.0,
        1.0,
        0.0,
        0.0,
        0.0,
        0.0,
        1.0,
        0.0,
        -0.024370000000000006,
        0.024260000000000004,
        -0.37517000000000006,
        1.0
      ],
      "name": "Plane"
    },
    {
      "mesh": 0,
      "name": "Plane_0"
    },
    {
      "children": [
        7
      ],
      "matrix": [
        1.0,
        0.0,
        0.0,
        0.0,
        0.0,
        1.0,
        0.0,
        0.0,
        0.0,
        0.0,
        1.0,
        0.0,
        -0.01823,
        3.24526,
        -0.37575000000000003,
        1.0
      ],
      "name": "Plane.001"
    },
    {
      "mesh": 1,
      "name": "Plane.001_0"
    }
  ],
  "scene": 0,
  "scenes": [
    {
      "name": "Sketchfab_Scene",
      "nodes": [
        0
      ]
    }
  ]
}
