{
  "accessors": [
    {
      "bufferView": 2,
      "componentType": 5126,
      "count": 1092,
      "max": [
        1.530600905418396,
        3.2820181846618652,
        1.0
      ],
      "min": [
        -2.8370800018310547,
        -1.0,
        -3.342710494995117
      ],
      "type": "VEC3"
    },
    {
      "bufferView": 2,
      "byteOffset": 13104,
      "componentType": 5126,
      "count": 1092,
      "max": [
        0.9559285044670105,
        0.9438711404800415,
        0.9997477531433105
      ],
      "min": [
        -0.9493331909179688,
        -0.9634639620780945,
        -0.9915239214897156
      ],
      "type": "VEC3"
    },
    {
      "bufferView": 1,
      "componentType": 5126,
      "count": 1092,
      "max": [
        0.9889883995056152,
        0.9480981230735779
      ],
      "min": [
        0.04418555647134781,
        0.01101154088973999
      ],
      "type": "VEC2"
    },
    {
      "bufferView": 0,
      "componentType": 5125,
      "count": 2040,
      "type": "SCALAR"
    },
    {
      "bufferView": 2,
      "byteOffset": 26208,
      "componentType": 5126,
      "count": 1092,
      "max": [
        1.5641636848449707,
        3.3155808448791504,
        1.0452253818511963
      ],
      "min": [
        -2.870394229888916,
        -1.0452253818511963,
        -3.3814897537231445
      ],
      "type": "VEC3"
    },
    {
      "bufferView": 2,
      "byteOffset": 39312,
      "componentType": 5126,
      "count": 1092,
      "max": [
        0.9724910855293274,
        0.980990469455719,
        0.986720621585846
      ],
      "min": [
        -0.9792032837867737,
        -0.9648736119270325,
        -0.9981979131698608
      ],
      "type": "VEC3"
    },
    {
      "bufferView": 1,
      "byteOffset": 8736,
      "componentType": 5126,
      "count": 1092,
      "max": [
        0.9889883995056152,
        0.9480981230735779
      ],
      "min": [
        0.04418555647134781,
        0.01101154088973999
      ],
      "type": "VEC2"
    },
    {
      "bufferView": 0,
      "byteOffset": 8160,
      "componentType": 5125,
      "count": 2040,
      "type": "SCALAR"
    }
  ],
  "asset": {
    "extras": {
      "author": "Hatty (https://sketchfab.com/Hatty53)",
      "license": "CC-BY-4.0 (http://creativecommons.org/licenses/by/4.0/)",
      "source": "https://sketchfab.com/3d-models/stack-o-crates-free-ef860e5c5c6241549f2e504256aaa256",
      "title": "Stack O' Crates [Free]"
    },
    "generator": "Sketchfab-12.66.0",
    "version": "2.0"
  },
  "bufferViews": [
    {
      "buffer": 0,
      "byteLength": 16320,
      "name": "floatBufferViews",
      "target": 34963
    },
    {
      "buffer": 0,
      "byteLength": 17472,
      "byteOffset": 16320,
      "byteStride": 8,
      "name": "floatBufferViews",
      "target": 34962
    },
    {
      "buffer": 0,
      "byteLength": 52416,
      "byteOffset": 33792,
      "byteStride": 12,
      "name": "floatBufferViews",
      "target": 34962
    }
  ],
  "buffers": [
    {
      "byteLength": 86208,
      "uri": "scene.bin"
    }
  ],
  "extensionsUsed": [
    "KHR_materials_unlit"
  ],
  "images": [
    {
      "uri": "textures/material_baseColor.png"
    }
  ],
  "materials": [
    {
      "doubleSided": true,
      "extensions": {
        "KHR_materials_unlit": {}
      },
      "name": "material",
      "pbrMetallicRoughness": {
        "baseColorTexture": {
          "index": 0
        },
        "metallicFactor": 0.0
      }
    },
    {
      "extensions": {
        "KHR_materials_unlit": {}
      },
      "name": "material_1",
      "pbrMetallicRoughness": {
        "baseColorFactor": [
          0.0219789,
          0.00480601,
          0.0010531,
          1.0
        ],
        "metallicFactor": 0.0
      }
    }
  ],
  "meshes": [
    {
      "name": "Object_0",
      "primitives": [
        {
          "attributes": {
            "NORMAL": 1,
            "POSITION": 0,
            "TEXCOORD_0": 2
          },
          "indices": 3,
          "material": 0,
          "mode": 4
        }
      ]
    },
    {
      "name": "Object_1",
      "primitives": [
        {
          "attributes": {
            "NORMAL": 5,
            "POSITION": 4,
            "TEXCOORD_0": 6
          },
          "indices": 7,
          "material": 1,
          "mode": 4
        }
      ]
    }
  ],
  "nodes": [
    {
      "children": [
        1
      ],
      "matrix": [
        1.0,
        0.0,
        0.0,
        0.0,
        0.0,
        2.220446049250313e-16,
        -1.0,
        0.0,
        0.0,
        1.0,
        2.220446049250313e-16,
        0.0,
        0.0,
        0.0,
        0.0,
        1.0
      ],
      "name": "Sketchfab_model"
    },
    {
      "children": [
        2
      ],
      "name": "root"
    },
    {
      "children": [
        3
      ],
      "matrix": [
        1.0,
        0.0,
        0.0,
        0.0,
        0.0,
        2.220446049250313e-16,
        1.0,
        0.0,
        0.0,
        -1.0,
        2.220446049250313e-16,
        0.0,
        0.0,
        0.0,
        0.0,
        1.0
      ],
      "name": "GLTF_SceneRootNode"
    },
    {
      "children": [
        4,
        5
      ],
      "matrix": [
        -0.4203253718995071,
        -4.3793320286353044e-08,
        1.202929767615917,
        0.0,
        -1.202929767615917,
        -3.108760160991153e-08,
        -0.42032537189950814,
        0.0,
        4.3793320286353044e-08,
        -1.2742501497268666,
        -3.108760160991153e-08,
        0.0,
        1.0999583005905151,
        0.0,
        -2.019414186477661,
        1.0
      ],
      "name": "Cube.001_2"
    },
    {
      "mesh": 0,
      "name": "Object_4"
    },
    {
      "mesh": 1,
      "name": "Object_5"
    }
  ],
  "samplers": [
    {
      "magFilter": 9728,
      "minFilter": 9728,
      "wrapS": 10497,
      "wrapT": 10497
    }
  ],
  "scene": 0,
  "scenes": [
    {
      "name": "Sketchfab_Scene",
      "nodes": [
        0
      ]
    }
  ],
  "textures": [
    {
      "sampler": 0,
      "source": 0
    }
  ]
}
