{
  "accessors": [
    {
      "bufferView": 2,
      "componentType": 5126,
      "count": 2106,
      "max": [
        0.5,
        0.5,
        0.5
      ],
      "min": [
        -0.5,
        -0.5,
        -0.5
      ],
      "type": "VEC3"
    },
    {
      "bufferView": 2,
      "byteOffset": 25272,
      "componentType": 5126,
      "count": 2106,
      "max": [
        1.0,
        0.9999999403953552,
        0.9998156428337097
      ],
      "min": [
        -0.9999999403953552,
        -0.9999999403953552,
        -0.9999416470527649
      ],
      "type": "VEC3"
    },
    {
      "bufferView": 1,
      "componentType": 5126,
      "count": 2106,
      "max": [
        0.5,
        0.5
      ],
      "min": [
        0.5,
        0.5
      ],
      "type": "VEC2"
    },
    {
      "bufferView": 0,
      "componentType": 5125,
      "count": 8016,
      "type": "SCALAR"
    },
    {
      "bufferView": 2,
      "byteOffset": 50544,
      "componentType": 5126,
      "count": 82,
      "max": [
        0.5,
        0.4972609877586365,
        0.5
      ],
      "min": [
        -0.4890739917755127,
        -0.4972609877586365,
        -0.5
      ],
      "type": "VEC3"
    },
    {
      "bufferView": 2,
      "byteOffset": 51528,
      "componentType": 5126,
      "count": 82,
      "max": [
        0.9985911250114441,
        0.9997551441192627,
        0.9999999403953552
      ],
      "min": [
        -0.9965912699699402,
        -0.9994226098060608,
        -0.9999999403953552
      ],
      "type": "VEC3"
    },
    {
      "bufferView": 1,
      "byteOffset": 16848,
      "componentType": 5126,
      "count": 82,
      "max": [
        1.0,
        1.0
      ],
      "min": [
        0.0,
        0.0
      ],
      "type": "VEC2"
    },
    {
      "bufferView": 0,
      "byteOffset": 32064,
      "componentType": 5125,
      "count": 270,
      "type": "SCALAR"
    }
  ],
  "asset": {
    "extras": {
      "author": "john.simmons.hypertext (https://sketchfab.com/john.simmons.hypertext)",
      "license": "CC-BY-4.0 (http://creativecommons.org/licenses/by/4.0/)",
      "source": "https://sketchfab.com/3d-models/port-mesh-buoy2-6da81c3d87bd4d1da56503d371ef5b15",
      "title": "Port Mesh Buoy2"
    },
    "generator": "Sketchfab-12.67.0",
    "version": "2.0"
  },
  "bufferViews": [
    {
      "buffer": 0,
      "byteLength": 33144,
      "name": "floatBufferViews",
      "target": 34963
    },
    {
      "buffer": 0,
      "byteLength": 17504,
      "byteOffset": 33144,
      "byteStride": 8,
      "name": "floatBufferViews",
      "target": 34962
    },
    {
      "buffer": 0,
      "byteLength": 52512,
      "byteOffset": 50648,
      "byteStride": 12,
      "name": "floatBufferViews",
      "target": 34962
    }
  ],
  "buffers": [
    {
      "byteLength": 103160,
      "uri": "scene.bin"
    }
  ],
  "materials": [
    {
      "doubleSided": true,
      "name": "Material0-material",
      "pbrMetallicRoughness": {
        "baseColorFactor": [
          1.0,
          0.0,
          0.0,
          1.0
        ],
        "metallicFactor": 0.0,
        "roughnessFactor": 0.6
      }
    },
    {
      "doubleSided": true,
      "name": "Material1-material",
      "pbrMetallicRoughness": {
        "baseColorFactor": [
          0.5019609928131104,
          0.0,
          0.0,
          1.0
        ],
        "metallicFactor": 0.0,
        "roughnessFactor": 0.6
      }
    }
  ],
  "meshes": [
    {
      "name": "Material1-material",
      "primitives": [
        {
          "attributes": {
            "NORMAL": 1,
            "POSITION": 0,
            "TEXCOORD_0": 2
          },
          "indices": 3,
          "material": 1,
          "mode": 4
        }
      ]
    },
    {
      "name": "Material0-material",
      "primitives": [
        {
          "attributes": {
            "NORMAL": 5,
            "POSITION": 4,
            "TEXCOORD_0": 6
          },
          "indices": 7,
          "material": 0,
          "mode": 4
        }
      ]
    }
  ],
  "nodes": [
    {
      "children": [
        1
      ],
      "matrix": [
        1.0,
        0.0,
        0.0,
        0.0,
        0.0,
        2.220446049250313e-16,
        -1.0,
        0.0,
        0.0,
        1.0,
        2.220446049250313e-16,
        0.0,
        0.0,
        0.0,
        0.0,
        1.0
      ],
      "name": "Sketchfab_model"
    },
    {
      "children": [
        2,
        4
      ],
      "name": "Collada visual scene group"
    },
    {
      "children": [
        3
      ],
      "matrix": [
        0.999861,
        -0.00694746,
        -0.0178035,
        0.0,
        0.0556735,
        0.183692,
        3.055,
        0.0,
        -0.00589145,
        -1.00265,
        0.0603952,
        0.0,
        0.0,
        0.0,
        0.0,
        1.0
      ],
      "name": "prim1"
    },
    {
      "mesh": 0,
      "name": "Material1-material"
    },
    {
      "children": [
        5
      ],
      "matrix": [
        0.349936,
        -0.0024315,
        -0.00623095,
        0.0,
        0.0020528,
        0.349361,
        -0.021044,
        0.0,
        0.00176555,
        0.00582538,
        0.096882,
        0.0,
        0.020752,
        0.0450439,
        1.28804,
        1.0
      ],
      "name": "prim0"
    },
    {
      "mesh": 1,
      "name": "Material0-material"
    }
  ],
  "scene": 0,
  "scenes": [
    {
      "name": "Sketchfab_Scene",
      "nodes": [
        0
      ]
    }
  ]
}
