{
  "accessors": [
    {
      "bufferView": 2,
      "componentType": 5126,
      "count": 2794,
      "max": [
        0.9575832486152649,
        1.8787236213684082,
        3.1329801082611084
      ],
      "min": [
        -0.9575832486152649,
        -1.9298874139785767,
        -4.347577095031738
      ],
      "type": "VEC3"
    },
    {
      "bufferView": 2,
      "byteOffset": 33528,
      "componentType": 5126,
      "count": 2794,
      "max": [
        0.9999889135360718,
        0.9911632537841797,
        1.0
      ],
      "min": [
        -1.0,
        -0.9999697208404541,
        -0.9997148513793945
      ],
      "type": "VEC3"
    },
    {
      "bufferView": 1,
      "componentType": 5126,
      "count": 2794,
      "max": [
        0.75,
        0.875
      ],
      "min": [
        0.0,
        0.0
      ],
      "type": "VEC2"
    },
    {
      "bufferView": 0,
      "componentType": 5125,
      "count": 4236,
      "type": "SCALAR"
    },
    {
      "bufferView": 2,
      "byteOffset": 67056,
      "componentType": 5126,
      "count": 2552,
      "max": [
        0.9575832486152649,
        1.8787236213684082,
        3.1329801082611084
      ],
      "min": [
        -0.9575832486152649,
        -0.8306191563606262,
        -4.333102703094482
      ],
      "type": "VEC3"
    },
    {
      "bufferView": 2,
      "byteOffset": 97680,
      "componentType": 5126,
      "count": 2552,
      "max": [
        0.997673749923706,
        0.972237765789032,
        1.0
      ],
      "min": [
        -0.997673749923706,
        -0.9370755553245544,
        -0.9949908256530762
      ],
      "type": "VEC3"
    },
    {
      "bufferView": 1,
      "byteOffset": 22352,
      "componentType": 5126,
      "count": 2552,
      "max": [
        0.75,
        0.875
      ],
      "min": [
        0.26064813137054443,
        0.4999999403953552
      ],
      "type": "VEC2"
    },
    {
      "bufferView": 0,
      "byteOffset": 16944,
      "componentType": 5125,
      "count": 3810,
      "type": "SCALAR"
    },
    {
      "bufferView": 2,
      "byteOffset": 128304,
      "componentType": 5126,
      "count": 480,
      "max": [
        0.6930397748947144,
        -1.5948314666748047,
        2.7057738304138184
      ],
      "min": [
        -0.6930397748947144,
        -1.9862475395202637,
        -1.8686071634292603
      ],
      "type": "VEC3"
    },
    {
      "bufferView": 2,
      "byteOffset": 134064,
      "componentType": 5126,
      "count": 480,
      "max": [
        0.9878214597702026,
        0.4749999940395355,
        0.9993943572044373
      ],
      "min": [
        -0.9878215193748474,
        -0.9996263980865479,
        -0.9729536175727844
      ],
      "type": "VEC3"
    },
    {
      "bufferView": 1,
      "byteOffset": 42768,
      "componentType": 5126,
      "count": 480,
      "max": [
        0.2916666865348816,
        0.7500000596046448
      ],
      "min": [
        0.26064813137054443,
        0.4999999403953552
      ],
      "type": "VEC2"
    },
    {
      "bufferView": 0,
      "byteOffset": 32184,
      "componentType": 5125,
      "count": 720,
      "type": "SCALAR"
    },
    {
      "bufferView": 2,
      "byteOffset": 139824,
      "componentType": 5126,
      "count": 165,
      "max": [
        0.3167288303375244,
        -0.21891248226165771,
        2.106968402862549
      ],
      "min": [
        -0.3167288303375244,
        -1.0907948017120361,
        1.0439361333847046
      ],
      "type": "VEC3"
    },
    {
      "bufferView": 2,
      "byteOffset": 141804,
      "componentType": 5126,
      "count": 165,
      "max": [
        0.9972353577613831,
        0.26905715465545654,
        0.9970490336418152
      ],
      "min": [
        -0.9972353577613831,
        -0.9978179931640625,
        -0.9884438514709473
      ],
      "type": "VEC3"
    },
    {
      "bufferView": 1,
      "byteOffset": 46608,
      "componentType": 5126,
      "count": 165,
      "max": [
        0.26064813137054443,
        0.75
      ],
      "min": [
        0.0,
        0.0
      ],
      "type": "VEC2"
    },
    {
      "bufferView": 0,
      "byteOffset": 35064,
      "componentType": 5125,
      "count": 252,
      "type": "SCALAR"
    },
    {
      "bufferView": 2,
      "byteOffset": 143784,
      "componentType": 5126,
      "count": 281,
      "max": [
        0.25235459208488464,
        0.8931774497032166,
        -4.084842681884766
      ],
      "min": [
        -0.25235459208488464,
        0.3471686840057373,
        -4.514046669006348
      ],
      "type": "VEC3"
    },
    {
      "bufferView": 2,
      "byteOffset": 147156,
      "componentType": 5126,
      "count": 281,
      "max": [
        0.911271870136261,
        0.7121325731277466,
        0.004020434804260731
      ],
      "min": [
        -0.9112715125083923,
        -0.9337865114212036,
        -0.982861340045929
      ],
      "type": "VEC3"
    },
    {
      "bufferView": 1,
      "byteOffset": 47928,
      "componentType": 5126,
      "count": 281,
      "max": [
        0.75,
        0.5
      ],
      "min": [
        0.25,
        0.375
      ],
      "type": "VEC2"
    },
    {
      "bufferView": 0,
      "byteOffset": 36072,
      "componentType": 5125,
      "count": 420,
      "type": "SCALAR"
    },
    {
      "bufferView": 2,
      "byteOffset": 150528,
      "componentType": 5126,
      "count": 40,
      "max": [
        0.2174566388130188,
        0.6783337593078613,
        -4.2404093742370605
      ],
      "min": [
        -0.2174566388130188,
        0.5594698190689087,
        -4.415886402130127
      ],
      "type": "VEC3"
    },
    {
      "bufferView": 2,
      "byteOffset": 151008,
      "componentType": 5126,
      "count": 40,
      "max": [
        0.9297415018081665,
        0.9165545105934143,
        0.6562643647193909
      ],
      "min": [
        -0.9297415614128113,
        -0.9417036771774292,
        -0.6773969531059265
      ],
      "type": "VEC3"
    },
    {
      "bufferView": 1,
      "byteOffset": 50176,
      "componentType": 5126,
      "count": 40,
      "max": [
        0.7083333134651184,
        0.5
      ],
      "min": [
        0.5416666269302368,
        0.4166666567325592
      ],
      "type": "VEC2"
    },
    {
      "bufferView": 0,
      "byteOffset": 37752,
      "componentType": 5125,
      "count": 60,
      "type": "SCALAR"
    },
    {
      "bufferView": 2,
      "byteOffset": 151488,
      "componentType": 5126,
      "count": 338,
      "max": [
        0.6793341040611267,
        1.7956382036209106,
        -3.6037633419036865
      ],
      "min": [
        -0.6793341040611267,
        1.4569225311279297,
        -3.881234884262085
      ],
      "type": "VEC3"
    },
    {
      "bufferView": 2,
      "byteOffset": 155544,
      "componentType": 5126,
      "count": 338,
      "max": [
        0.8592061400413513,
        0.960201621055603,
        0.957277238368988
      ],
      "min": [
        -0.8592057228088379,
        -0.9445984363555908,
        -0.9914589524269104
      ],
      "type": "VEC3"
    },
    {
      "bufferView": 1,
      "byteOffset": 50496,
      "componentType": 5126,
      "count": 338,
      "max": [
        0.7226519584655762,
        0.5
      ],
      "min": [
        0.7083333134651184,
        0.5
      ],
      "type": "VEC2"
    },
    {
      "bufferView": 0,
      "byteOffset": 37992,
      "componentType": 5125,
      "count": 522,
      "type": "SCALAR"
    }
  ],
  "asset": {
    "extras": {
      "author": "DibArts (https://sketchfab.com/youssefe22)",
      "license": "CC-BY-4.0 (http://creativecommons.org/licenses/by/4.0/)",
      "source": "https://sketchfab.com/3d-models/cow-0c23f971c1a84923996b7d0ecf166af8",
      "title": "Cow"
    },
    "generator": "Sketchfab-14.38.0",
    "version": "2.0"
  },
  "bufferViews": [
    {
      "buffer": 0,
      "byteLength": 40080,
      "name": "floatBufferViews",
      "target": 34963
    },
    {
      "buffer": 0,
      "byteLength": 53200,
      "byteOffset": 40080,
      "byteStride": 8,
      "name": "floatBufferViews",
      "target": 34962
    },
    {
      "buffer": 0,
      "byteLength": 159600,
      "byteOffset": 93280,
      "byteStride": 12,
      "name": "floatBufferViews",
      "target": 34962
    }
  ],
  "buffers": [
    {
      "byteLength": 252880,
      "uri": "scene.bin"
    }
  ],
  "extensionsRequired": [
    "KHR_materials_pbrSpecularGlossiness"
  ],
  "extensionsUsed": [
    "KHR_materials_pbrSpecularGlossiness"
  ],
  "materials": [
    {
      "doubleSided": true,
      "extensions": {
        "KHR_materials_pbrSpecularGlossiness": {
          "diffuseFactor": [
            0.8,
            0.8,
            0.8,
            1.0
          ],
          "glossinessFactor": 1.0,
          "specularFactor": [
            0.0,
            0.0,
            0.0
          ]
        }
      },
      "name": "Material"
    },
    {
      "doubleSided": true,
      "extensions": {
        "KHR_materials_pbrSpecularGlossiness": {
          "diffuseFactor": [
            0.0,
            0.0,
            0.0,
            1.0
          ],
          "glossinessFactor": 0.5,
          "specularFactor": [
            0.0,
            0.0,
            0.0
          ]
        }
      },
      "name": "Material.001"
    },
    {
      "doubleSided": true,
      "extensions": {
        "KHR_materials_pbrSpecularGlossiness": {
          "diffuseFactor": [
            0.0946274,
            0.0580048,
            0.0561505,
            1.0
          ],
          "glossinessFactor": 0.5,
          "specularFactor": [
            0.0,
            0.0,
            0.0
          ]
        }
      },
      "name": "Material.002"
    },
    {
      "doubleSided": true,
      "extensions": {
        "KHR_materials_pbrSpecularGlossiness": {
          "diffuseFactor": [
            0.8,
            0.431754,
            0.622299,
            1.0
          ],
          "glossinessFactor": 0.5,
          "specularFactor": [
            0.0,
            0.0,
            0.0
          ]
        }
      },
      "name": "Material.003"
    },
    {
      "doubleSided": true,
      "extensions": {
        "KHR_materials_pbrSpecularGlossiness": {
          "diffuseFactor": [
            0.7999999999999999,
            0.24321799999999996,
            0.6249499999999998,
            1.0
          ],
          "glossinessFactor": 0.5,
          "specularFactor": [
            0.0,
            0.0,
            0.0
          ]
        }
      },
      "name": "Material.004"
    },
    {
      "doubleSided": true,
      "extensions": {
        "KHR_materials_pbrSpecularGlossiness": {
          "diffuseFactor": [
            0.0732373,
            0.0188799,
            0.0512324,
            1.0
          ],
          "glossinessFactor": 0.5,
          "specularFactor": [
            0.0,
            0.0,
            0.0
          ]
        }
      },
      "name": "Material.005"
    },
    {
      "doubleSided": true,
      "extensions": {
        "KHR_materials_pbrSpecularGlossiness": {
          "diffuseFactor": [
            0.0946273,
            0.0679849,
            0.0503832,
            1.0
          ],
          "glossinessFactor": 0.5,
          "specularFactor": [
            0.0,
            0.0,
            0.0
          ]
        }
      },
      "name": "Material.007"
    }
  ],
  "meshes": [
    {
      "name": "Object_0",
      "primitives": [
        {
          "attributes": {
            "NORMAL": 1,
            "POSITION": 0,
            "TEXCOORD_0": 2
          },
          "indices": 3,
          "material": 0,
          "mode": 4
        }
      ]
    },
    {
      "name": "Object_1",
      "primitives": [
        {
          "attributes": {
            "NORMAL": 5,
            "POSITION": 4,
            "TEXCOORD_0": 6
          },
          "indices": 7,
          "material": 1,
          "mode": 4
        }
      ]
    },
    {
      "name": "Object_2",
      "primitives": [
        {
          "attributes": {
            "NORMAL": 9,
            "POSITION": 8,
            "TEXCOORD_0": 10
          },
          "indices": 11,
          "material": 2,
          "mode": 4
        }
      ]
    },
    {
      "name": "Object_3",
      "primitives": [
        {
          "attributes": {
            "NORMAL": 13,
            "POSITION": 12,
            "TEXCOORD_0": 14
          },
          "indices": 15,
          "material": 3,
          "mode": 4
        }
      ]
    },
    {
      "name": "Object_4",
      "primitives": [
        {
          "attributes": {
            "NORMAL": 17,
            "POSITION": 16,
            "TEXCOORD_0": 18
          },
          "indices": 19,
          "material": 4,
          "mode": 4
        }
      ]
    },
    {
      "name": "Object_5",
      "primitives": [
        {
          "attributes": {
            "NORMAL": 21,
            "POSITION": 20,
            "TEXCOORD_0": 22
          },
          "indices": 23,
          "material": 5,
          "mode": 4
        }
      ]
    },
    {
      "name": "Object_6",
      "primitives": [
        {
          "attributes": {
            "NORMAL": 25,
            "POSITION": 24,
            "TEXCOORD_0": 26
          },
          "indices": 27,
          "material": 6,
          "mode": 4
        }
      ]
    }
  ],
  "nodes": [
    {
      "children": [
        1
      ],
      "matrix": [
        1.0,
        0.0,
        0.0,
        0.0,
        0.0,
        2.220446049250313e-16,
        -1.0,
        0.0,
        0.0,
        1.0,
        2.220446049250313e-16,
        0.0,
        0.0,
        0.0,
        0.0,
        1.0
      ],
      "name": "Sketchfab_model"
    },
    {
      "children": [
        2
      ],
      "name": "root"
    },
    {
      "children": [
        3
      ],
      "matrix": [
        1.0,
        0.0,
        0.0,
        0.0,
        0.0,
        2.220446049250313e-16,
        1.0,
        0.0,
        0.0,
        -1.0,
        2.220446049250313e-16,
        0.0,
        0.0,
        0.0,
        0.0,
        1.0
      ],
      "name": "GLTF_SceneRootNode"
    },
    {
      "children": [
        4,
        5,
        6,
        7,
        8,
        9,
        10
      ],
      "matrix": [
        1.229121208190918,
        0.0,
        0.0,
        0.0,
        0.0,
        1.229121208190918,
        0.0,
        0.0,
        0.0,
        0.0,
        1.229121208190918,
        0.0,
        0.0,
        0.0,
        0.0,
        1.0
      ],
      "name": "Cube_0"
    },
    {
      "mesh": 0,
      "name": "Object_4"
    },
    {
      "mesh": 1,
      "name": "Object_5"
    },
    {
      "mesh": 2,
      "name": "Object_6"
    },
    {
      "mesh": 3,
      "name": "Object_7"
    },
    {
      "mesh": 4,
      "name": "Object_8"
    },
    {
      "mesh": 5,
      "name": "Object_9"
    },
    {
      "mesh": 6,
      "name": "Object_10"
    }
  ],
  "scene": 0,
  "scenes": [
    {
      "name": "Sketchfab_Scene",
      "nodes": [
        0
      ]
    }
  ]
}
